# xmcd CD database file
#
# Track frame offsets:
#	150
#	10930
#	24933
#	37685
#	49745
#	63547
#	80769
#	96744
#	111152
#	125075
#	139152
#	149605
#	164162
#	176882
#	186317
#	200597
#	213897
#	226227
#	237024
#	249399
#	261662
#	273534
#	288239
#	302112
#	315557
#	325680
#	338338
#
# Disc length: 4762 seconds
#
# Revision: 0
# Processed by: cddbd v1.5.1PL0 Copyright (c) Steve Scherf et al.
# Submitted via: CDex 1.51
#
DISCID=9812981b
DTITLE=Dolly Parton - Ultimate (RCA Years plus)
DYEAR=1900
DGENRE=Country
TTITLE0=Dolly Parton - 1968 Put It Off Until Tomorrow (with Porter Wagoner) (Dolly Parton-Billy Owens)
TTITLE1=Dolly Parton - 1968 Just Because I'm A Woman (Dolly Parton)
TTITLE2=Dolly Parton - 1969 Mama Say A Prayer (Dolly Parton)
TTITLE3=Dolly Parton - 1969 It's My Time
TTITLE4=Dolly Parton - 1970 Daddy Come And Get Me (Dolly Parton-Dorothy Jo Hope)
TTITLE5=Dolly Parton - 1970 Down From Dover (Dolly Parton)
TTITLE6=Dolly Parton - 1970 My Blue Ridge Mountain Boy (Dolly Parton)
TTITLE7=Dolly Parton - 1970 Muleskinner Blues (Jimmie Rodgers-George Vaughn)
TTITLE8=Dolly Parton - 1971 The Last One To Touch Me (Dolly Parton)
TTITLE9=Dolly Parton - 1971 Coat Of Many Colors (Dolly Parton)
TTITLE10=Dolly Parton - 1971 My Blue Tears (Dolly Parton)
TTITLE11=Dolly Parton - 1972 Lonely Comin' Down
TTITLE12=Dolly Parton - 1973 In The Good Old Days (When Times Were Bad) (Dolly Parton)
TTITLE13=Dolly Parton - 1973 The Letter (Dolly Parton)
TTITLE14=Dolly Parton - 1973 My Tennessee Mountain Home (Dolly Parton)
TTITLE15=Dolly Parton - 1974 I Will Always Love You (Dolly Parton)
TTITLE16=Dolly Parton - 1974 Jolene (Dolly Parton)
TTITLE17=Dolly Parton - 1974 Love Is Like A Butterfly (Dolly Parton)
TTITLE18=Dolly Parton - 1975 The Bargain Store (Dolly Parton)
TTITLE19=Dolly Parton - 1975 Bobby's Arms (Dolly Parton)
TTITLE20=Dolly Parton - 1975 Hold Me (Dolly Parton)
TTITLE21=Dolly Parton - 1975 We Used To (Dolly Parton)
TTITLE22=Dolly Parton - 1975 The Seeker (Dolly Parton)
TTITLE23=Dolly Parton - 1977 Here You Come Again (Barry Mann-Cynthia Weil)
TTITLE24=Dolly Parton - 1980 Making Plans (With Porter Wagoner) (Johnny Russell-Voni Morrison)
TTITLE25=Dolly Parton - 1980 9 To 5 (Dolly Parton)
TTITLE26=Dolly Parton - 1983 Islands In The Stream (With Kenny Rogers) (Barry, Robin and Maurice Gibb)
EXTD=
EXTT0=
EXTT1=
EXTT2=
EXTT3=
EXTT4=
EXTT5=
EXTT6=
EXTT7=
EXTT8=
EXTT9=
EXTT10=
EXTT11=
EXTT12=
EXTT13=
EXTT14=
EXTT15=
EXTT16=
EXTT17=
EXTT18=
EXTT19=
EXTT20=
EXTT21=
EXTT22=
EXTT23=
EXTT24=
EXTT25=
EXTT26=
PLAYORDER=
